<?xml version="1.0" standalone="no"?>
<!DOCTYPE svg PUBLIC "-//W3C//DTD SVG 20010904//EN"
 "http://www.w3.org/TR/2001/REC-SVG-20010904/DTD/svg10.dtd">
<svg version="1.0" xmlns="http://www.w3.org/2000/svg"
 width="645.000000pt" height="387.000000pt" viewBox="0 0 645.000000 387.000000"
 preserveAspectRatio="xMidYMid meet">

<g transform="translate(0.000000,387.000000) scale(0.100000,-0.100000)"
fill="#000000" stroke="none">
<path d="M2696 3686 c-5 -28 -12 -35 -34 -38 -21 -2 -29 -11 -36 -35 -7 -23
-17 -34 -37 -38 -30 -7 -39 -27 -39 -92 0 -29 -4 -43 -13 -43 -7 0 -22 -6 -32
-14 -16 -11 -19 -32 -24 -142 l-6 -129 -33 -3 -33 -3 3 -137 3 -137 30 -5 30
-5 3 -108 3 -107 -36 0 c-33 0 -35 -2 -35 -35 l0 -35 69 0 70 0 -3 35 c-4 35
-3 35 35 35 38 0 39 1 39 35 l0 35 70 0 70 0 0 -70 0 -70 35 0 c33 0 35 -2 35
-35 0 -33 2 -35 35 -35 33 0 35 2 35 35 0 33 -2 35 -35 35 l-35 0 0 70 0 70
-35 0 -35 0 0 75 c0 72 1 75 23 75 40 0 47 18 47 122 l0 98 30 0 c40 0 43 14
39 218 -4 177 -10 202 -50 202 -20 0 -27 19 -31 90 -3 41 -6 45 -30 48 l-28 3
0 -65 0 -66 -35 0 -35 0 0 65 c0 60 2 65 23 66 12 1 25 1 30 0 4 0 7 15 7 34
0 30 -3 35 -24 35 -19 0 -25 -7 -30 -34z m134 -316 l0 -140 -35 0 -35 0 0 140
0 140 35 0 35 0 0 -140z"/>
<path d="M3991 3268 c-10 -28 -3 -51 14 -44 7 2 20 -1 30 -7 12 -10 15 -26 13
-72 l-3 -59 -142 -1 -143 -1 0 34 0 34 -52 -7 c-60 -8 -78 -19 -78 -46 0 -17
8 -19 65 -19 l65 0 0 -35 0 -35 -70 0 -70 0 0 35 c0 25 -4 35 -16 35 -29 0
-54 -20 -54 -44 0 -20 -7 -24 -57 -32 -47 -7 -60 -14 -70 -34 l-12 -25 64 -3
65 -3 0 -34 c0 -33 -2 -35 -35 -35 -33 0 -35 -2 -35 -35 0 -33 -2 -35 -35 -35
-33 0 -35 -2 -35 -35 0 -33 -2 -35 -35 -35 l-35 0 0 66 0 65 -27 -3 c-22 -2
-29 -9 -33 -33 -4 -25 -10 -30 -38 -33 -29 -3 -32 -6 -32 -38 l0 -34 65 0 65
0 0 -30 c0 -28 -3 -30 -35 -30 -34 0 -35 -1 -35 -40 0 -39 1 -40 35 -40 33 0
35 -2 35 -35 0 -33 -2 -35 -35 -35 -33 0 -35 -2 -35 -35 0 -33 -2 -35 -35 -35
l-35 0 0 -110 0 -110 35 0 35 0 0 -70 0 -70 -35 0 -35 0 0 -70 0 -70 -35 0
-35 0 0 -75 0 -75 -35 0 c-35 0 -37 -3 -39 -45 -1 -18 -9 -20 -73 -23 l-73 -3
0 -34 0 -35 -70 0 -70 0 0 -35 0 -35 -105 0 c-77 0 -105 -3 -106 -12 0 -7 -2
-23 -3 -35 l-3 -23 254 0 253 0 0 29 c0 29 1 29 70 36 l70 7 0 34 c0 32 2 34
35 34 l35 0 0 70 0 70 35 0 35 0 0 70 0 70 35 0 c33 0 35 -2 35 -35 0 -33 2
-35 35 -35 33 0 35 2 35 35 0 33 -2 35 -35 35 l-35 0 0 220 0 220 28 1 c92 4
112 12 112 44 0 22 4 25 34 25 66 0 98 12 109 40 6 17 21 30 41 36 24 7 32 16
34 37 3 21 9 27 26 27 28 0 43 16 48 50 2 20 9 26 36 28 29 3 32 6 32 38 0 29
3 34 23 34 36 0 47 19 47 82 0 54 1 58 24 58 33 0 43 16 53 85 7 52 11 60 33
65 22 5 26 13 34 74 5 39 5 94 0 129 l-9 62 -53 3 c-47 3 -53 1 -61 -20z
m-371 -293 c0 -33 -2 -35 -35 -35 -33 0 -35 2 -35 35 0 33 2 35 35 35 33 0 35
-2 35 -35z"/>
<path d="M3800 3211 c-18 -5 -26 -15 -28 -34 l-3 -27 105 0 106 0 0 35 0 35
-77 -1 c-43 -1 -89 -4 -103 -8z"/>
<path d="M3344 2904 c-8 -31 6 -47 37 -42 19 2 25 10 27 36 3 30 1 32 -27 32
-25 0 -32 -5 -37 -26z"/>
<path d="M2840 2755 c0 -32 2 -35 30 -35 28 0 30 -3 30 -35 0 -33 2 -35 35
-35 33 0 35 -2 35 -35 0 -33 2 -35 35 -35 33 0 35 -2 35 -35 0 -34 1 -35 40
-35 39 0 40 1 40 35 0 33 2 35 35 35 l35 0 0 65 0 65 -29 0 c-25 0 -30 -4 -33
-27 -3 -25 -8 -28 -45 -31 -41 -3 -42 -2 -45 30 l-3 33 -66 3 -67 3 -6 34 c-6
29 -11 35 -31 35 -22 0 -25 -5 -25 -35z"/>
<path d="M2619 2645 c-1 -3 -1 -17 -2 -32 -1 -25 3 -28 36 -31 36 -3 37 -3 37
32 0 34 -2 36 -35 36 -19 0 -35 -2 -36 -5z"/>
<path d="M2347 2563 c-4 -3 -7 -17 -7 -30 0 -19 5 -23 30 -23 27 0 30 3 30 30
0 25 -4 30 -23 30 -13 0 -27 -3 -30 -7z"/>
<path d="M4347 2563 c-4 -3 -7 -17 -7 -30 0 -20 5 -23 36 -23 35 0 35 -1 32
-37 -3 -36 -5 -38 -40 -41 l-36 -3 -1 -105 -1 -104 40 0 40 0 0 -70 0 -70 35
0 35 0 0 -75 0 -75 35 0 35 0 0 -70 0 -70 -35 0 c-33 0 -35 2 -35 35 0 33 -2
35 -35 35 l-34 0 -3 -67 -3 -68 -37 -3 c-36 -3 -38 -5 -38 -38 0 -31 -3 -34
-29 -34 -29 0 -29 1 -36 69 -7 69 -7 70 -38 73 l-32 3 -3 74 -3 74 -52 -7
c-29 -3 -60 -6 -69 -6 -12 0 -18 -10 -20 -32 -3 -28 -7 -32 -33 -33 l-30 0 -3
73 -3 73 -37 -3 c-34 -3 -37 -6 -40 -35 -3 -28 -7 -32 -35 -35 -28 -3 -32 -7
-35 -34 -2 -24 -9 -33 -27 -36 -32 -7 -47 5 -45 33 1 13 2 43 1 67 -1 41 -2
42 -36 42 l-35 0 0 65 c0 62 -1 65 -24 65 -28 0 -32 -8 -41 -83 -7 -54 -9 -57
-36 -57 -28 0 -28 -1 -31 -67 l-3 -68 -37 -3 c-36 -3 -38 -5 -38 -38 0 -32 2
-34 35 -34 l35 0 0 -70 0 -70 35 0 c33 0 35 -2 35 -34 0 -33 -2 -35 -37 -38
l-38 -3 0 -70 0 -70 -37 -3 -38 -3 0 -70 0 -69 -35 0 c-33 0 -35 -2 -35 -35 0
-33 -2 -35 -35 -35 -33 0 -35 -2 -35 -35 l0 -34 -72 -3 -73 -3 2 -32 c3 -30 1
-32 -35 -35 -34 -3 -37 -6 -40 -35 -3 -29 -7 -33 -33 -33 -25 0 -29 4 -29 29
0 27 -3 29 -52 35 -97 11 -98 11 -98 -34 0 -39 -1 -40 -35 -40 -33 0 -35 -2
-35 -35 0 -33 -2 -35 -35 -35 -35 0 -35 0 -36 -47 -1 -27 0 -58 1 -70 1 -20
-3 -23 -34 -23 -34 0 -36 2 -36 35 l0 35 -69 0 -70 0 -3 38 -3 37 -72 -3 -73
-4 0 41 c0 40 -1 41 -35 41 l-35 0 0 70 0 70 -35 0 c-33 0 -35 2 -35 35 l0 35
-70 0 -70 0 0 -29 c0 -35 13 -41 86 -41 l54 0 0 -54 c0 -73 6 -86 41 -86 26 0
29 -3 29 -35 0 -30 3 -35 23 -35 46 0 50 -14 48 -167 l-1 -63 -35 0 c-33 0
-35 -2 -35 -35 0 -33 -2 -35 -35 -35 l-36 0 3 -62 c3 -61 4 -63 33 -68 23 -4
31 -11 33 -30 2 -14 7 -28 10 -32 10 -10 159 -18 220 -11 49 5 52 7 52 34 0
24 5 29 35 35 l35 6 0 69 0 69 40 0 c39 0 40 1 40 35 0 33 2 35 35 35 34 0 35
-1 35 -40 0 -39 -1 -40 -35 -40 l-35 0 0 -104 0 -105 38 -3 c31 -2 38 -7 41
-28 1 -14 7 -28 13 -31 5 -3 65 -7 133 -8 l124 -2 3 33 c3 29 7 34 38 38 31 4
35 9 38 37 l3 33 83 0 c46 0 124 3 174 6 l91 7 3 31 c3 27 7 32 38 36 31 4 35
9 38 38 3 26 8 32 26 32 35 0 46 20 46 81 l0 58 33 3 c28 3 32 7 35 34 l3 31
88 6 c106 8 119 12 123 40 3 20 12 23 108 34 58 6 106 12 108 12 1 1 2 15 2
31 0 29 1 30 51 30 62 0 89 13 89 45 0 20 6 24 33 27 28 3 32 7 35 36 3 28 7
32 32 32 37 0 50 23 50 87 0 46 2 49 33 58 32 10 32 11 35 78 3 67 3 67 32 67
22 0 31 6 35 23 3 12 4 121 3 242 l-3 220 -32 3 c-33 3 -33 4 -33 58 0 56 -22
94 -55 94 -11 0 -15 16 -17 68 l-3 67 -32 3 c-31 3 -33 6 -33 40 0 20 -3 54
-6 74 -6 36 -5 37 27 40 28 3 34 8 42 38 5 19 6 63 2 97 l-7 63 -57 0 c-32 0
-61 -3 -64 -7z m-1227 -1807 c0 -32 3 -35 33 -38 l32 -3 0 -70 0 -70 -32 -3
c-31 -3 -31 -4 -38 -73 -7 -68 -7 -69 -36 -69 -26 0 -29 3 -29 35 0 34 -1 35
-40 35 -39 0 -40 -1 -40 -35 0 -33 -2 -35 -35 -35 -33 0 -35 2 -35 34 0 32 -3
35 -32 38 -29 3 -33 7 -36 36 -3 31 -2 32 37 32 40 0 41 1 41 35 0 33 2 35 35
35 l35 0 0 75 0 75 70 0 70 0 0 -34z"/>
<path d="M2270 2474 c-6 -14 -10 -45 -10 -70 0 -42 -1 -44 -30 -44 -25 0 -30
-4 -35 -34 -4 -18 -6 -42 -5 -52 1 -11 2 -76 1 -146 l-1 -128 -35 0 -35 0 0
-65 0 -65 35 0 35 0 0 65 0 65 29 0 c26 0 30 -4 33 -32 l3 -33 73 -3 72 -3 0
-36 c0 -34 -1 -35 -35 -31 -35 4 -35 4 -35 -34 0 -37 1 -38 35 -38 33 0 35 -2
35 -35 l0 -35 -70 0 -70 0 0 70 0 70 -35 0 -35 0 0 -70 0 -70 29 0 c27 0 30
-3 33 -37 3 -36 5 -38 41 -41 35 -3 37 -5 37 -38 l0 -34 63 1 c88 1 152 12
153 27 1 6 2 21 3 32 1 18 8 20 71 20 l70 0 0 35 c0 33 2 35 35 35 33 0 35 2
35 35 0 33 -2 35 -35 35 -21 0 -35 -5 -36 -12 -1 -7 -2 -22 -3 -33 -1 -18 -9
-20 -74 -23 -71 -3 -73 -2 -72 20 4 47 3 48 -70 48 l-70 0 0 35 c0 34 1 35 41
35 l40 0 -3 38 c-4 35 -6 37 -41 40 l-37 3 0 139 0 139 -32 3 c-30 3 -33 6
-36 41 -3 35 -5 37 -38 37 -31 0 -34 2 -34 30 0 28 3 30 35 30 l35 0 0 70 c0
68 -1 70 -25 70 -18 0 -28 -7 -35 -26z m60 -290 c0 -35 -1 -35 -37 -32 -35 3
-38 6 -41 36 -3 31 -2 32 37 32 40 0 41 -1 41 -36z m210 -499 l0 -35 -70 0
-70 0 0 35 0 35 70 0 70 0 0 -35z"/>
<path d="M4084 2490 c-12 -4 -24 -18 -27 -29 -5 -20 -1 -21 69 -21 l74 0 0 30
c0 29 -1 30 -47 29 -27 0 -58 -4 -69 -9z"/>
<path d="M3925 2415 c-3 -8 -7 -22 -10 -30 -3 -11 4 -15 30 -15 32 0 35 2 35
30 0 25 -4 30 -25 30 -14 0 -28 -7 -30 -15z"/>
<path d="M3846 2344 c-14 -37 -7 -54 23 -54 32 0 40 12 33 47 -5 27 -46 32
-56 7z"/>
<path d="M3775 2278 c-2 -7 -5 -22 -7 -33 -2 -11 -12 -21 -23 -23 -30 -6 -45
-22 -45 -49 0 -21 4 -24 33 -21 29 3 32 6 32 36 0 30 2 32 32 32 31 0 33 2 33
35 0 31 -3 35 -25 35 -14 0 -27 -6 -30 -12z"/>
<path d="M2830 1970 l0 -180 110 0 110 0 0 145 0 145 -35 0 c-33 0 -35 2 -35
35 l0 35 -75 0 -75 0 0 -180z m140 75 c0 -33 -2 -35 -35 -35 -33 0 -35 2 -35
35 0 33 2 35 35 35 33 0 35 -2 35 -35z"/>
<path d="M2050 1296 c0 -49 4 -65 16 -70 39 -15 44 -8 44 64 l0 70 -30 0 -30
0 0 -64z"/>
</g>
</svg>
